<?xml version="1.0" encoding="UTF-8" standalone="yes"?>
<svg xmlns="http://www.w3.org/2000/svg" viewBox="0 0 24 24" width="48" height="48" fill="#000000">
  <path d="M 12 3 C 10.343 3 9 4.343 9 6 L 9 12 C 9 13.657 10.343 15 12 15 C 13.657 15 15 13.657 15 12 L 15 6 C 15 4.343 13.657 3 12 3 z M 6.0878906 12 C 5.4818906 12 4.9937969 12.538719 5.0917969 13.136719 C 5.5807733 16.137338 7.9809832 18.488983 11 18.921875 L 11 21 C 11 21.552 11.448 22 12 22 C 12.552 22 13 21.552 13 21 L 13 18.919922 C 13.72415 18.813554 14.415026 18.601548 15.050781 18.292969 L 13.501953 16.744141 C 13.024953 16.895141 12.527 17 12 17 C 9.529 17 7.4762656 15.207563 7.0722656 12.851562 C 6.9892656 12.364563 6.5838437 12 6.0898438 12 L 6.0878906 12 z M 17.414062 15.414062 C 17.158188 15.414062 16.902531 15.511531 16.707031 15.707031 C 16.316031 16.097031 16.316031 16.730094 16.707031 17.121094 L 18.121094 18.535156 L 16.707031 19.949219 C 16.316031 20.339219 16.316031 20.972281 16.707031 21.363281 C 17.097031 21.754281 17.730094 21.754281 18.121094 21.363281 L 19.535156 19.949219 L 20.949219 21.363281 C 21.339219 21.754281 21.972281 21.754281 22.363281 21.363281 C 22.753281 20.972281 22.753281 20.339219 22.363281 19.949219 L 20.949219 18.535156 L 22.363281 17.121094 C 22.754281 16.731094 22.754281 16.098031 22.363281 15.707031 C 21.972281 15.317031 21.339219 15.317031 20.949219 15.707031 L 19.535156 17.121094 L 18.121094 15.707031 C 17.926094 15.511531 17.669937 15.414062 17.414062 15.414062 z"/>
</svg>
