<?xml version="1.0" encoding="UTF-8" standalone="yes"?>
<svg xmlns="http://www.w3.org/2000/svg" style="fill: #fff;" viewBox="0 0 24 24" width="24" height="24" fill="#000000">
  <path d="M 4 4 C 2.895 4 2 4.895 2 6 L 2 18 C 2 19.105 2.895 20 4 20 L 12 20 L 12 18 C 12 16.895 12.895 16 14 16 L 15 16 L 18 16 L 18.066406 15.992188 C 18.260406 15.111187 18.870422 14.367719 19.732422 14.011719 C 20.073422 13.871719 20.432781 13.800781 20.800781 13.800781 C 21.224781 13.800781 21.629953 13.903078 22.001953 14.080078 L 22.001953 6 C 22.000953 4.895 21.105 4 20 4 L 4 4 z M 4.8554688 6.6816406 C 5.0035 6.6828125 5.155875 6.7222969 5.296875 6.8105469 L 12 11 L 18.703125 6.8105469 C 19.267125 6.4575469 20 6.8632969 20 7.5292969 C 20 7.8212969 19.849563 8.0930469 19.601562 8.2480469 L 12.529297 12.669922 C 12.205297 12.872922 11.794703 12.872922 11.470703 12.669922 L 4.3984375 8.2480469 C 4.1504375 8.0930469 4 7.8212969 4 7.5292969 C 4 7.0297969 4.411375 6.678125 4.8554688 6.6816406 z M 20.724609 15.804688 C 20.646687 15.812047 20.569141 15.830578 20.494141 15.861328 C 20.195141 15.985328 20 16.276609 20 16.599609 L 20 18 L 15 18 C 14.448 18 14 18.448 14 19 C 14 19.552 14.448 20 15 20 L 20 20 L 20 21.400391 C 20 21.723391 20.195141 22.014672 20.494141 22.138672 C 20.593141 22.179672 20.697781 22.199219 20.800781 22.199219 C 21.008781 22.199219 21.211234 22.118844 21.365234 21.964844 L 23.765625 19.564453 C 24.077625 19.252453 24.077625 18.746594 23.765625 18.433594 L 21.365234 16.033203 C 21.193484 15.862203 20.958375 15.782609 20.724609 15.804688 z"/>
</svg>
